<svg xmlns="http://www.w3.org/2000/svg" viewBox="0 0 48 48">
  <path fill="#ffffff" d="M41.01 13.029c-2.193 0-3.965-1.772-3.965-3.965s1.772-3.965 3.965-3.965 3.965 1.772 3.965 3.965-1.772 3.965-3.965 3.965zm-28.02 0c-2.193 0-3.965-1.772-3.965-3.965s1.772-3.965 3.965-3.965 3.965 1.772 3.965 3.965-1.772 3.965-3.965 3.965zM45 31.311c0-1.754-1.423-3.177-3.177-3.177h-6.063l-2.267-8.277c-.226-.823-.987-1.379-1.846-1.379h-8.454c-.859 0-1.62.556-1.846 1.379l-2.267 8.277h-6.063c-1.754 0-3.177 1.423-3.177 3.177v9.128c0 1.754 1.423 3.177 3.177 3.177h24.646c1.754 0 3.177-1.423 3.177-3.177v-9.128zm-6.955 6.721c0 .668-.543 1.211-1.211 1.211h-8.462c-.668 0-1.211-.543-1.211-1.211v-5.308c0-.668.543-1.211 1.211-1.211h8.462c.668 0 1.211.543 1.211 1.211v5.308z"/>
</svg>
