<svg xmlns="http://www.w3.org/2000/svg"  viewBox="0 0 50 50" width="50px" height="50px"><path d="M 25.970703 0 A 1.0001 1.0001 0 0 0 25.292969 0.29296875 C 25.292969 0.29296875 23.430612 2.1351088 20.683594 3.0507812 A 1.0001 1.0001 0 0 0 20.105469 4.4472656 C 20.468553 5.1734352 20.651126 5.6553852 20.773438 6.0253906 C 19.03951 6.385008 17.208131 7.0957089 15.503906 8.2851562 C 15.140276 7.487697 14.528941 6.6462993 13.447266 6.1054688 C 13.215594 5.9896348 13.067086 5.8060678 12.939453 5.4550781 C 12.811821 5.1040885 12.75 4.6134259 12.75 4.125 C 12.75 3.1481481 12.970703 2.2421875 12.970703 2.2421875 A 1.0001 1.0001 0 0 0 12.015625 1 A 1.0001 1.0001 0 0 0 11.552734 1.1054688 C 11.552734 1.1054688 11.291692 1.2453708 11.025391 1.4707031 C 10.759089 1.6960354 10.420174 2.0394904 10.060547 2.5429688 C 9.3508592 3.5365312 8.5678162 5.1658499 8.0449219 7.71875 C 7.2234917 9.1316811 6.9249516 10.50229 7.1015625 11.701172 C 7.2887919 12.972134 7.9245312 14.010565 8.6386719 14.806641 C 9.0849321 15.304102 9.5582788 15.691401 10.015625 16.029297 C 8.6423398 21.871046 8.0737517 30.888818 12.449219 44.480469 C 12.215177 44.363858 11.94871 44.24664 11.746094 44.130859 C 10.12967 43.207188 9.4826505 42.353973 9.2070312 41.802734 C 9.0692217 41.527115 9.0229672 41.32288 9.0058594 41.203125 C 8.9887515 41.08337 8.9921875 41.125 8.9921875 41.125 A 1.0001 1.0001 0 0 0 8.0117188 39.986328 A 1.0001 1.0001 0 0 0 7.0078125 40.875 C 7.0078125 40.875 6.9799986 41.16663 7.0253906 41.484375 C 7.0707826 41.80212 7.1807784 42.222885 7.4179688 42.697266 C 7.8923495 43.646027 8.8703306 44.792812 10.753906 45.869141 C 14.132519 47.799776 20.475826 49.577018 32.623047 49.925781 A 1.0006809 1.0006809 0 0 0 33.345703 49.9375 C 34.533441 49.965685 35.700691 50 37 50 A 1.0001 1.0001 0 1 0 37 48 C 35.953299 48 35.031725 47.968384 34.060547 47.949219 C 34.327262 43.149502 33.426302 39.394151 33.103516 38.242188 C 33.948729 37.33683 34.453271 36.036438 34.714844 34.552734 C 35.858472 34.943653 37.11782 34.781846 38.041016 34.09375 C 38.70836 33.596351 39.202965 32.778953 39.226562 31.837891 C 39.240518 31.281391 39.081569 30.71111 38.794922 30.140625 C 39.931542 29.705347 40.849251 28.903475 41.462891 28.105469 A 1.0001 1.0001 0 0 0 41.462891 28.103516 C 41.951619 27.467599 42.925756 26.624164 43.851562 25.689453 C 44.777369 24.754742 45.716533 23.707901 45.982422 22.322266 C 46.580081 19.207049 45.009553 16.723134 43.978516 15.470703 C 44.107743 13.467003 43.327336 11.744096 41.0625 11.494141 C 39.944604 11.066362 38.898176 10.818112 37.921875 10.712891 C 34.936287 10.391116 32.605272 11.359566 30.880859 12.275391 C 30.851133 12.291178 30.830214 12.302657 30.800781 12.318359 C 30.333264 11.133547 29.579492 9.8849693 28.552734 8.7832031 C 28.86677 8.2872172 29.041851 7.7437927 29.037109 7.2265625 C 29.029626 6.4101144 28.710972 5.7145404 28.349609 5.140625 C 27.784653 4.2433624 27.294647 3.8865443 27 3.6367188 L 27 1 A 1.0001 1.0001 0 0 0 25.970703 0 z M 25 3.0429688 L 25 4 A 1.0001 1.0001 0 0 0 25.376953 4.7832031 C 25.376953 4.7832031 26.171475 5.4371121 26.65625 6.2070312 C 26.898638 6.5919909 27.034655 6.9783231 27.037109 7.2460938 C 27.037761 7.3158651 27.034236 7.3800571 27.023438 7.4433594 C 25.845665 6.5978613 24.438341 5.983669 22.855469 5.8769531 C 22.846546 5.8763516 22.837058 5.8775233 22.828125 5.8769531 C 22.825926 5.8685959 22.82649 5.8638834 22.824219 5.8554688 C 22.740364 5.5447687 22.468512 4.956784 22.261719 4.4609375 C 23.299828 4.0077324 24.30842 3.5251542 25 3.0429688 z M 10.910156 5.1582031 C 10.957156 5.4883627 10.940116 5.8074906 11.060547 6.1386719 C 11.307914 6.8189322 11.784406 7.5103672 12.552734 7.8945312 C 13.981851 8.6090898 14.021484 10.412109 14.021484 10.412109 A 1.0001 1.0001 0 1 0 16.021484 10.394531 C 17.653689 9.0833296 19.473328 8.3357668 21.201172 7.9804688 C 23.355993 7.5374253 25.11362 8.311993 26.529297 9.5898438 C 27.715815 10.660845 28.567011 12.091826 29.001953 13.267578 C 28.694022 13.417168 28.410846 13.542053 28.183594 13.603516 C 28.108145 13.623921 28.054227 13.631364 27.990234 13.646484 A 1.5 1.5 0 0 0 26.5 12 A 1.5 1.5 0 0 0 25.064453 13.927734 A 1.0001 1.0001 0 0 0 25.326172 14.496094 C 26.275507 15.550043 27.619268 15.827398 28.707031 15.533203 C 29.794794 15.239008 30.742843 14.612216 31.818359 14.041016 C 32.983824 13.422045 34.247419 12.840628 35.785156 12.669922 C 28.790971 15.805388 33.454989 20.520536 37.185547 21.896484 C 37.02443 22.482679 36.842674 23.080557 36.611328 23.683594 C 35.972759 25.348116 35.048868 26.971482 33.765625 28.146484 C 32.482382 29.321487 30.866928 30.085938 28.607422 30.085938 C 27.837014 30.085938 27.426439 29.763432 26.970703 29.072266 C 26.514968 28.381099 26.161814 27.337884 25.876953 26.306641 C 25.592092 25.275397 25.40047 24.295375 24.994141 23.486328 C 24.790976 23.081805 24.492076 22.595151 23.833984 22.427734 C 23.175893 22.260318 22.577575 22.603334 22.171875 22.990234 C 21.535964 23.596732 21.27981 23.571692 21.189453 23.550781 C 21.099093 23.529871 20.875503 23.365818 20.654297 22.96875 C 20.211884 22.174613 19.990234 20.861328 19.990234 20.861328 A 1.0001 1.0001 0 1 0 18.009766 21.138672 C 18.009766 21.138672 18.185162 22.647043 18.90625 23.941406 C 19.266794 24.588588 19.8167 25.28477 20.738281 25.498047 C 21.5691 25.690319 22.451481 25.314381 23.277344 24.621094 C 23.456271 25.058244 23.67782 25.857335 23.949219 26.839844 C 24.249483 27.92685 24.618236 29.138682 25.300781 30.173828 C 25.983327 31.208974 27.127829 32.085938 28.607422 32.085938 C 31.337416 32.085938 33.514258 31.087029 35.115234 29.621094 C 35.146365 29.592589 35.174362 29.562032 35.205078 29.533203 C 35.561036 29.870242 35.955069 30.128012 36.378906 30.273438 C 36.428177 30.290343 36.477938 30.294445 36.527344 30.308594 C 37.096427 30.980285 37.234281 31.48126 37.226562 31.789062 C 37.218663 32.10297 37.097234 32.302758 36.845703 32.490234 C 36.342642 32.865186 35.342164 32.928102 34.707031 32.292969 A 1.0001 1.0001 0 0 0 33 33 C 33 35.026611 32.34988 36.29871 31.453125 37.058594 C 30.55637 37.818478 29.342437 38.105245 28.023438 37.875 C 25.385438 37.414511 22.431936 34.854295 21.996094 29.912109 A 1.0001 1.0001 0 1 0 20.003906 30.087891 C 20.505064 35.770705 24.051935 39.210489 27.679688 39.84375 C 28.937596 40.06333 30.212701 39.932634 31.34375 39.443359 C 31.720893 41.041701 32.278309 44.200279 32.060547 47.916016 C 23.697194 47.631565 18.304402 46.633979 14.884766 45.486328 C 10.18641 31.768072 10.57485 22.898253 11.822266 17.126953 C 11.837047 17.133387 11.902344 17.164062 11.902344 17.164062 A 1.0004429 1.0004429 0 1 0 12.693359 15.326172 C 12.693359 15.326172 11.191422 14.657301 10.126953 13.470703 C 9.5947189 12.877404 9.1948175 12.189037 9.0800781 11.410156 C 8.9653388 10.631275 9.1041347 9.7153769 9.8476562 8.53125 A 1.0001 1.0001 0 0 0 9.9804688 8.1953125 C 10.245014 6.8725861 10.575554 5.9199777 10.910156 5.1582031 z M 21.603516 9.9335938 C 21.171363 9.9072418 20.587007 9.9451329 19.980469 10.205078 C 18.767392 10.724968 17.55976 12.103542 17.019531 14.804688 A 1.0001 1.0001 0 1 0 18.980469 15.195312 C 19.44024 12.896458 20.232608 12.275032 20.769531 12.044922 C 21.306455 11.814812 21.683594 11.949219 21.683594 11.949219 A 1.0005646 1.0005646 0 1 0 22.316406 10.050781 C 22.316406 10.050781 22.035668 9.959945 21.603516 9.9335938 z M 21.5 13 A 1.5 1.5 0 0 0 21.5 16 A 1.5 1.5 0 0 0 21.5 13 z M 43.332031 18.134766 C 43.874991 19.162559 44.298336 20.4819 44.017578 21.945312 C 43.895467 22.581678 43.27138 23.431461 42.429688 24.28125 C 41.587994 25.131039 40.590225 25.956682 39.876953 26.884766 C 39.433208 27.461833 38.587561 28.149426 37.898438 28.359375 C 37.553874 28.46435 37.273983 28.467435 37.027344 28.382812 C 36.868708 28.328379 36.700896 28.226011 36.523438 28.041016 C 37.367642 26.902562 38.001409 25.644037 38.478516 24.400391 C 38.754223 23.681719 38.967174 22.973539 39.152344 22.285156 C 39.341054 22.278184 39.519572 22.257979 39.675781 22.212891 C 41.177231 21.779101 42.551841 20.066056 43.332031 18.134766 z"/></svg>